Coordinates
version=1
nRows=7
nColumns=33
inDegrees=yes

Units are S.I. units (second, meters, Newtons, ...)
Angles are in degrees.

endheader
time	ground_thorax_rot_x	ground_thorax_rot_y	ground_thorax_rot_z	ground_thorax_tx	ground_thorax_ty	ground_thorax_tz	clav_prot_r	clav_elev_r	scapula_abduction_r	scapula_elevation_r	scapula_upward_rot_r	scapula_winging_r	shoulder_elv_r	plane_of_elev_r	axial_rot_r	elbow_flexion_r	pro_sup_r	wrist_flex_r	wrist_dev_r	clav_prot_l	clav_elev_l	scapula_abduction_l	scapula_elevation_l	scapula_upward_rot_l	scapula_winging_l	shoulder_elv_l	plane_of_elev_l	axial_rot_l	elbow_flexion_l	pro_sup_l	wrist_flex_l	wrist_dev_l
      8.78000000	    -35.00536686	    -18.05162121	     25.05585611	    -90.61095922	    822.94691153	    -41.81548244	     28.12568102	    -45.00000000	     38.30961182	    -45.00000000	    -45.00000000	    617.86314686	  -4966.46966861	     22.38604448	    179.99999979	   1448.06777234	   -166.57243268	     15.17527359	     14.77824303	      0.45337670	     31.40131836	    -30.75991574	    -45.00000000	    -45.00000000	  -3515.82649689	    631.38420434	    132.73854028	   -100.37553754	    709.64165002	    401.97483088	     14.05226936	    -17.58853020
      8.79000000	    -35.08931005	    -17.96205326	     24.83361817	    -91.97169018	    824.66762375	    -42.14546951	     28.09826986	    -45.00000000	     38.27254958	    -45.00000000	    -45.00000000	    617.76041032	  -4966.41291092	     22.41498576	    179.99999979	   1448.00013052	   -167.29013058	     15.24576650	     14.82682684	      0.47810093	     31.48018486	    -30.84356503	    -45.00000000	    -45.00000000	  -3515.70014983	    631.44972663	    132.68427583	   -100.27554570	    709.62348402	    401.32586876	     14.10467708	    -17.63097313
      8.80000000	    -35.24428758	    -17.91489660	     24.53951813	    -93.24898125	    826.38625584	    -42.48257472	     28.04130945	    -45.00000000	     38.16883054	    -45.00000000	    -45.00000000	    617.70127091	  -4966.42995618	     22.58807833	    179.99999979	   1448.05961259	   -167.92298948	     15.31038054	     14.90831631	      0.47536460	     31.47765244	    -30.98716737	    -45.00000000	    -45.00000000	  -3515.43584400	    631.55331954	    132.60043373	   -100.11929823	    709.56861447	    400.81233568	     14.19243263	    -17.73118710
      8.81000000	    -35.22725285	    -17.84521338	     24.42058623	    -94.44163023	    828.09564911	    -42.82167763	     27.97347639	    -45.00000000	     38.23017442	    -45.00000000	    -45.00000000	    617.50633862	  -4966.34941979	     22.60206010	    179.99999979	   1447.92343080	   -168.58360882	     15.37222720	     14.94539551	      0.45845839	     31.53577639	    -30.99234830	    -45.00000000	    -45.00000000	  -3515.41411559	    631.60479622	    132.58583007	   -100.04018628	    709.60990833	    400.35455881	     14.23337296	    -17.78907052
      8.82000000	    -35.32763783	    -17.78250696	     24.19616728	    -95.54825179	    829.78918601	    -43.15721115	     27.95920855	    -45.00000000	     38.19166020	    -45.00000000	    -45.00000000	    617.46269992	  -4966.31818518	     22.66142913	    179.99999979	   1447.91880821	   -169.16091202	     15.43720928	     14.98889773	      0.47152658	     31.61353044	    -31.08151495	    -45.00000000	    -45.00000000	  -3515.25103294	    631.66607361	    132.53278167	    -99.93397822	    709.58979860	    399.98882576	     14.29051815	    -17.88377703
      8.83000000	    -35.31441995	    -17.73022473	     24.07170375	    -96.56640429	    831.46067882	    -43.48417717	     27.87728538	    -45.00000000	     38.22848369	    -45.00000000	    -45.00000000	    617.29759178	  -4966.28754213	     22.69750450	    179.99999979	   1447.79650435	   -169.73495474	     15.50366464	     15.01736072	      0.44776761	     31.62825142	    -31.11741932	    -45.00000000	    -45.00000000	  -3515.22350872	    631.73913293	    132.51915519	    -99.86111738	    709.60937967	    399.67390408	     14.33052711	    -17.96193457
      8.84000000	    -35.34773919	    -17.68436338	     23.90653851	    -97.49393091	    833.10233254	    -43.79807817	     27.85499343	    -45.00000000	     38.21506430	    -45.00000000	    -45.00000000	    617.19854998	  -4966.23903479	     22.75207338	    179.99999979	   1447.69898210	   -170.25478488	     15.58763614	     15.03913035	      0.44971716	     31.70288696	    -31.18299166	    -45.00000000	    -45.00000000	  -3515.11316316	    631.79790080	    132.47214954	    -99.75550469	    709.61171555	    399.42083814	     14.37475652	    -18.07664091
